<svg viewBox="0 0 300 50" xmlns="http://www.w3.org/2000/svg" fill-rule="evenodd" clip-rule="evenodd" stroke-linejoin="round" stroke-miterlimit="2">
  <path d="M21.99806629 18.24692374l-6.70301109.00596561c.65559978-3.84185155 2.35717921-5.7637716 5.0957983-5.7637716.61983979 0 5.90933801-.01491401 5.90933801-.01491401l.72513309-4.40560151h-9.4336835c-2.959139 0-5.51399148.86203035-7.6695241 2.5850968-2.00752599 1.61469123-3.21243892 3.576382-3.61573211 5.88706083-.07151998.40069-.16489328.97040556-.27316658 1.70616388h-4.3855652L1 22.54017297h4.44019851L2.32411289 41.96419262l9.39494351-.00894842s1.14332629-7.33670357 2.971059-19.41805404l6.64043111-.01491402.66751978-4.2753524zm30.2032832 23.71428607l1.0718063-6.47765602.93373302-5.37799561c.43607319-2.26593677.65559978-4.05860198.65559978-5.37799561 0-1.7926652-.7767864-3.32085512-2.32936588-4.57959841-1.55357281-1.26272036-3.3892522-1.8950748-5.50306482-1.8950748l-21.6546594-.02783951-.6953331 4.30915751s20.72191971.0059656 20.79443302.0059656c.4003132 0 .5870598.13223765.55030648.50309962l-.4758065 3.49186921H28.2898375c-1.4989395 0-3.01377232.47327157-4.5484718 1.42478605-2.1912926 1.35618155-3.47070551 3.3119067-3.83525872 5.8751296-.07449998.44046073-.1082733.87992719-.1082733 1.3174051 0 2.19633802.85525972 3.9522153 2.5737258 5.2696204 1.35192622 1.02409605 2.75749241 1.53316126 4.22067192 1.53316126l25.60911808.00596561zm-8.2446639-5.3660644c-.03576.44344353-.27316658.66317676-.7132131.66317676-.73109309.07556437-4.80375839.07556437-12.2150159 0-1.5714528-.03678791-2.24791258-1.23587512-2.02540599-3.60024443.3277999-2.25102275 1.6012528-3.3805112 3.12403229-3.4113335h12.8199557l-.990353 6.34840118zm132.25831561 5.3630816l1.07180631-6.47467322.93273969-5.37799561c.43607318-2.26593677.65659311-4.05860198.65659311-5.37799561 0-1.7926652-.7767864-3.32085512-2.32737922-4.57959841-1.55357281-1.26272036-3.3892522-1.8950748-5.50505148-1.8950748l-21.6546594-.02783951-.6953331 4.30915751s20.72092637.0059656 20.79343968.0059656c.4003132 0 .5840798.13223765.55129982.50309962l-.4728265 3.49186921h-17.25717422c-1.4989395 0-3.01277899.47327157-4.5484718 1.42478605-2.1912926 1.35618155-3.4707055 3.3119067-3.83128539 5.8751296-.0754933.44046073-.1082733.87992719-.1082733 1.3174051 0 2.19633802.85724639 3.9522153 2.57372581 5.2696204 1.35093288 1.02409605 2.75649907 1.53316126 4.21967858 1.53316126l25.60117141.0029828zm-8.2416839-5.3630816c-.03675332.44344353-.2741599.66317676-.7102331.66317676-.73208641.07556437-4.80475171.07556437-12.2150159 0-1.5714528-.03678791-2.2489059-1.23587512-2.02639931-3.60024443.32879322-2.25102275 1.5982728-3.3805112 3.12204562-3.4113335h12.8199557l-.990353 6.34840118zM88.7113039 19.95209337c-1.35490621-1.24184073-2.959139-1.86524676-4.82263172-1.86524676l-14.26128188.02087962 1.46019951-10.10772848-9.09396361.04175925-5.02725831 33.91348721 9.2320369.00894842s.25329991-1.86226397.43706652-3.28705001l2.35618587-16.14591805H80.6593466c1.2068996 0 1.73336609.58462958 1.5893328 1.74991168L79.7742869 41.9612098l9.18932358-.0059656s.75294642-5.88706083 1.99361933-15.37834316c.03278-.43648365.05363998-.85805329.05363998-1.2617261 0-2.22417751-.7648664-4.01385991-2.29956589-5.36308159zm9.4515635.2734237c-1.23967959 1.0936948-1.986666 2.46180757-2.24592592 4.1043383-.95061968 6.44782799-2.5945858 17.61942324-2.5945858 17.61942324l9.0423103-.00894842s1.7879994-11.88050833 2.34227922-15.24212844c.25528658-1.5162587.8006264-2.67557518 1.63403278-3.48988068.6893731-.7019532 1.3847062-.69201052 2.1853326-.69201052h10.18960992l.64665978-4.266404H104.300672c-2.5558458.00298281-4.60608512.6621825-6.1378046 1.97561052zm47.32735078-1.9726277H130.4283099c-2.5558458 0-4.60608512.65919968-6.1378046 1.9726277-1.23967959 1.0936948-1.989646 2.46180757-2.24592592 4.1043383-.95061968 6.44782799-2.5945858 17.61942324-2.5945858 17.61942324l9.0423103-.00894842s1.7879994-11.88050833 2.34227922-15.24212844c.25627991-1.5162587.8006264-2.67557518 1.63403278-3.48988068.6893731-.7019532 1.3847062-.69201052 2.1853326-.69201052h10.18960992l.64665978-4.26342119zM207.616244 8.09246465s-.981413 6.10182272-1.63502612 10.15445908c-3.7985054-.25652114-6.941411-.38577598-9.42077017-.38577598-5.47922483 0-9.25985023.71388442-11.34286953 2.14165327-2.0830193 1.42876312-3.41309219 4.0794816-3.99717199 7.96010961-.1837666 1.20505282-.2741599 2.34448394-.2741599 3.40139083 0 3.4769552.8969797 6.14954758 2.6849791 8.01777715 1.6469461 1.72008364 3.78062539 2.5791312 6.4119645 2.5791312H211.580636l5.2557249-33.86576236h-9.2201169v-.0029828zm-4.11835862 27.29762794c-.14701328 1.28359999-.6019598 1.92192004-1.36881287 1.92192004h-7.77879073c-1.05889297 0-2.01050599-.34898806-2.84987237-1.04497566-1.35192622-1.05491835-2.12275262-2.10884243-2.12275262-4.45034357 0-.73178125.0754933-1.53316126.21952659-2.41308844.80459973-5.08568082 4.12729861-7.62603556 9.97008332-7.62603556 1.7909794 0 3.6872521.25652115 5.69775809.76856917l-1.7671394 12.84395402z" fill-rule="nonzero"/>
  <path d="M254.43798829 18.24692374c-3.7985054-.25652114-6.941411-.38577598-9.4217635-.38577598-5.4782315 0-9.2588569.71388442-11.3418762 2.14165327-2.0830193 1.42876312-3.41607219 4.0794816-4.000152 7.96010961-.1837666 1.20505282-.2741599 2.34448394-.2741599 3.40139083 0 3.4769552.8939997 6.14954758 2.6849791 8.01777715 1.64694611 1.72008364 3.7806254 2.5791312 6.40898451 2.5791312h21.53645278l5.2587049-33.86576236h-9.21614358c.00298-.0029828-.978433 6.09883992-1.63502611 10.15147628zm-2.4773725 17.14316886c-.14999329 1.28359999-.6049398 1.92192004-1.36980621 1.92192004h-7.7807774c-1.0598863 0-2.00752598-.34898806-2.8478857-1.04497566-1.35093288-1.05491835-2.12175929-2.10884243-2.12175929-4.45034357 0-.73178125.0725133-1.53316126.2195266-2.41308844.80360639-5.08568082 4.1272986-7.62603556 9.97008331-7.62603556 1.7909794 0 3.6872521.25652115 5.6977581.76856917l-1.76713941 12.84395402zm-35.10935489 6.55322039h8.58438379l.6923531-4.63130035H217.537654l-.6863931 4.63130035zm78.479267-22.44659437c-2.11977262-.87694438-5.80702472-1.31342803-11.06572962-1.31342803-6.13681128 0-10.28198988.51204802-12.4375225 1.53316126-3.1786656 1.46157396-5.1355316 4.65217997-5.8606647 9.57877791-.21654659 1.4943848-.33077988 2.82570966-.33077988 3.99198602 0 3.10311043.7857264 5.32331087 2.3571792 6.67650962 1.56747948 1.35021594 4.1084253 2.02134684 7.61489078 2.02134684l17.4767008.01491402c.03675333 0 .87611971-4.69393922.87611971-4.69393922h-16.05325461c-1.8992527 0-3.0793323-.25552688-2.95814568-2.1873896.02682-.40367281.03576-.91870364.1112533-1.54509248 7.52151748-.03678791 11.5047828-.05766754 11.940856-.05766754 3.79850539 0 6.5202378-.40069 8.16321059-1.20505282 1.2794129-.61744042 2.3571792-1.80459642 3.23329891-3.55848517.4003132-.87396157.6019598-1.93385126.6019598-3.17569199 0-.65323408-.0725133-1.2955312-.22051993-1.91595444-.5115665-2.01239843-1.66085277-3.39542522-3.44885217-4.16399438zm-4.7650184 5.90197485c-.5115665 2.89033707-2.94125902 4.25745557-7.28808422 4.11030391h-7.61191078c.43607318-2.88636 1.02313299-4.73370995 1.75422607-5.53508996 1.05690632-1.13247125 3.28495224-1.699204 6.68314443-1.699204 4.70740509.0029828 6.8629377 1.04596993 6.4626245 3.12399005z" fill="#e10717" fill-rule="nonzero"/>
</svg>